<mxfile host="app.diagrams.net" modified="2024-02-12T04:15:27.446Z" agent="Mozilla/5.0 (Windows NT 10.0; Win64; x64; rv:122.0) Gecko/20100101 Firefox/122.0" etag="UFuL-O3_besFYzhwbtK0" version="23.1.2" type="device">
  <diagram id="C5RBs43oDa-KdzZeNtuy" name="Page-1">
    <mxGraphModel dx="1434" dy="754" grid="1" gridSize="10" guides="1" tooltips="1" connect="1" arrows="1" fold="1" page="1" pageScale="1" pageWidth="827" pageHeight="1169" math="0" shadow="0">
      <root>
        <mxCell id="WIyWlLk6GJQsqaUBKTNV-0" />
        <mxCell id="WIyWlLk6GJQsqaUBKTNV-1" parent="WIyWlLk6GJQsqaUBKTNV-0" />
        <mxCell id="WIyWlLk6GJQsqaUBKTNV-3" value="Start Program" style="rounded=1;whiteSpace=wrap;html=1;fontSize=12;glass=0;strokeWidth=1;shadow=0;" parent="WIyWlLk6GJQsqaUBKTNV-1" vertex="1">
          <mxGeometry x="40" y="40" width="120" height="40" as="geometry" />
        </mxCell>
        <mxCell id="gCHOKQJuizi5hcOXJvC1-0" value="User Is Met With GUI" style="whiteSpace=wrap;html=1;aspect=fixed;" vertex="1" parent="WIyWlLk6GJQsqaUBKTNV-1">
          <mxGeometry x="250" y="20" width="80" height="80" as="geometry" />
        </mxCell>
        <mxCell id="gCHOKQJuizi5hcOXJvC1-1" value="" style="endArrow=classic;html=1;rounded=0;entryX=0;entryY=0.5;entryDx=0;entryDy=0;exitX=1;exitY=0.5;exitDx=0;exitDy=0;" edge="1" parent="WIyWlLk6GJQsqaUBKTNV-1" source="WIyWlLk6GJQsqaUBKTNV-3" target="gCHOKQJuizi5hcOXJvC1-0">
          <mxGeometry width="50" height="50" relative="1" as="geometry">
            <mxPoint x="190" y="170" as="sourcePoint" />
            <mxPoint x="180" y="240" as="targetPoint" />
          </mxGeometry>
        </mxCell>
        <mxCell id="gCHOKQJuizi5hcOXJvC1-2" value="User Selects &#39;Enable Webcam&#39;" style="whiteSpace=wrap;html=1;aspect=fixed;" vertex="1" parent="WIyWlLk6GJQsqaUBKTNV-1">
          <mxGeometry x="430" y="20" width="80" height="80" as="geometry" />
        </mxCell>
        <mxCell id="gCHOKQJuizi5hcOXJvC1-3" value="" style="endArrow=classic;html=1;rounded=0;entryX=0;entryY=0.5;entryDx=0;entryDy=0;exitX=1;exitY=0.5;exitDx=0;exitDy=0;" edge="1" parent="WIyWlLk6GJQsqaUBKTNV-1" source="gCHOKQJuizi5hcOXJvC1-0" target="gCHOKQJuizi5hcOXJvC1-2">
          <mxGeometry width="50" height="50" relative="1" as="geometry">
            <mxPoint x="130" y="290" as="sourcePoint" />
            <mxPoint x="180" y="240" as="targetPoint" />
          </mxGeometry>
        </mxCell>
        <mxCell id="gCHOKQJuizi5hcOXJvC1-5" value="Program Accesses Selected Webcam" style="whiteSpace=wrap;html=1;aspect=fixed;" vertex="1" parent="WIyWlLk6GJQsqaUBKTNV-1">
          <mxGeometry x="720" y="20" width="80" height="80" as="geometry" />
        </mxCell>
        <mxCell id="gCHOKQJuizi5hcOXJvC1-8" value="" style="ellipse;whiteSpace=wrap;html=1;aspect=fixed;fillColor=#f5f5f5;fontColor=#333333;strokeColor=#666666;" vertex="1" parent="WIyWlLk6GJQsqaUBKTNV-1">
          <mxGeometry x="620" y="405" width="30" height="30" as="geometry" />
        </mxCell>
        <mxCell id="gCHOKQJuizi5hcOXJvC1-9" value="Webcam Feed Is Displayed" style="whiteSpace=wrap;html=1;aspect=fixed;" vertex="1" parent="WIyWlLk6GJQsqaUBKTNV-1">
          <mxGeometry x="720" y="190" width="80" height="80" as="geometry" />
        </mxCell>
        <mxCell id="gCHOKQJuizi5hcOXJvC1-11" value="Toggle Background Blur?" style="rhombus;whiteSpace=wrap;html=1;" vertex="1" parent="WIyWlLk6GJQsqaUBKTNV-1">
          <mxGeometry x="430" y="190" width="80" height="80" as="geometry" />
        </mxCell>
        <mxCell id="gCHOKQJuizi5hcOXJvC1-12" value="" style="endArrow=classic;html=1;rounded=0;entryX=1;entryY=0.5;entryDx=0;entryDy=0;exitX=0;exitY=0.5;exitDx=0;exitDy=0;" edge="1" parent="WIyWlLk6GJQsqaUBKTNV-1" source="gCHOKQJuizi5hcOXJvC1-9" target="gCHOKQJuizi5hcOXJvC1-11">
          <mxGeometry width="50" height="50" relative="1" as="geometry">
            <mxPoint x="130" y="290" as="sourcePoint" />
            <mxPoint x="180" y="240" as="targetPoint" />
          </mxGeometry>
        </mxCell>
        <mxCell id="gCHOKQJuizi5hcOXJvC1-13" value="" style="curved=1;endArrow=classic;html=1;rounded=0;entryX=0.588;entryY=1.025;entryDx=0;entryDy=0;entryPerimeter=0;exitX=0.5;exitY=1;exitDx=0;exitDy=0;" edge="1" parent="WIyWlLk6GJQsqaUBKTNV-1" source="gCHOKQJuizi5hcOXJvC1-11" target="gCHOKQJuizi5hcOXJvC1-9">
          <mxGeometry width="50" height="50" relative="1" as="geometry">
            <mxPoint x="130" y="290" as="sourcePoint" />
            <mxPoint x="180" y="240" as="targetPoint" />
            <Array as="points">
              <mxPoint x="480" y="320" />
              <mxPoint x="760" y="320" />
            </Array>
          </mxGeometry>
        </mxCell>
        <mxCell id="gCHOKQJuizi5hcOXJvC1-15" value="" style="swimlane;startSize=0;" vertex="1" parent="WIyWlLk6GJQsqaUBKTNV-1">
          <mxGeometry x="40" y="190" width="290" height="290" as="geometry" />
        </mxCell>
        <mxCell id="gCHOKQJuizi5hcOXJvC1-22" value="&lt;div&gt;Noise Reduction&lt;/div&gt;&lt;div&gt;(Moving Average)&lt;br&gt;&lt;/div&gt;" style="rounded=1;whiteSpace=wrap;html=1;" vertex="1" parent="gCHOKQJuizi5hcOXJvC1-15">
          <mxGeometry x="160" y="10" width="100" height="50" as="geometry" />
        </mxCell>
        <mxCell id="gCHOKQJuizi5hcOXJvC1-25" value="Sharpen Image" style="rounded=0;whiteSpace=wrap;html=1;" vertex="1" parent="gCHOKQJuizi5hcOXJvC1-15">
          <mxGeometry x="20" y="10" width="90" height="50" as="geometry" />
        </mxCell>
        <mxCell id="gCHOKQJuizi5hcOXJvC1-26" value="" style="endArrow=classic;html=1;rounded=0;entryX=1;entryY=0.5;entryDx=0;entryDy=0;" edge="1" parent="gCHOKQJuizi5hcOXJvC1-15" source="gCHOKQJuizi5hcOXJvC1-22" target="gCHOKQJuizi5hcOXJvC1-25">
          <mxGeometry width="50" height="50" relative="1" as="geometry">
            <mxPoint x="90" y="100" as="sourcePoint" />
            <mxPoint x="140" y="50" as="targetPoint" />
          </mxGeometry>
        </mxCell>
        <mxCell id="gCHOKQJuizi5hcOXJvC1-29" value="&lt;div&gt;Edge Detection &lt;br&gt;&lt;/div&gt;&lt;div&gt;(Gradient Magnitide)&lt;br&gt;&lt;/div&gt;" style="rounded=0;whiteSpace=wrap;html=1;" vertex="1" parent="gCHOKQJuizi5hcOXJvC1-15">
          <mxGeometry x="20" y="90" width="90" height="50" as="geometry" />
        </mxCell>
        <mxCell id="gCHOKQJuizi5hcOXJvC1-30" value="" style="endArrow=classic;html=1;rounded=0;entryX=0.5;entryY=0;entryDx=0;entryDy=0;" edge="1" parent="gCHOKQJuizi5hcOXJvC1-15" source="gCHOKQJuizi5hcOXJvC1-25" target="gCHOKQJuizi5hcOXJvC1-29">
          <mxGeometry width="50" height="50" relative="1" as="geometry">
            <mxPoint x="90" y="100" as="sourcePoint" />
            <mxPoint x="140" y="50" as="targetPoint" />
          </mxGeometry>
        </mxCell>
        <mxCell id="gCHOKQJuizi5hcOXJvC1-31" value="Gaussian Blurring" style="rounded=0;whiteSpace=wrap;html=1;" vertex="1" parent="gCHOKQJuizi5hcOXJvC1-15">
          <mxGeometry x="160" y="180" width="100" height="50" as="geometry" />
        </mxCell>
        <mxCell id="gCHOKQJuizi5hcOXJvC1-33" value="Hysteresis Thresholding" style="rounded=0;whiteSpace=wrap;html=1;" vertex="1" parent="gCHOKQJuizi5hcOXJvC1-15">
          <mxGeometry x="160" y="90" width="100" height="50" as="geometry" />
        </mxCell>
        <mxCell id="gCHOKQJuizi5hcOXJvC1-34" value="" style="endArrow=classic;html=1;rounded=0;entryX=0;entryY=0.5;entryDx=0;entryDy=0;exitX=1;exitY=0.5;exitDx=0;exitDy=0;" edge="1" parent="gCHOKQJuizi5hcOXJvC1-15" source="gCHOKQJuizi5hcOXJvC1-29" target="gCHOKQJuizi5hcOXJvC1-33">
          <mxGeometry width="50" height="50" relative="1" as="geometry">
            <mxPoint x="120" y="120" as="sourcePoint" />
            <mxPoint x="140" y="80" as="targetPoint" />
          </mxGeometry>
        </mxCell>
        <mxCell id="gCHOKQJuizi5hcOXJvC1-35" value="" style="endArrow=classic;html=1;rounded=0;entryX=0.5;entryY=0;entryDx=0;entryDy=0;exitX=0.5;exitY=1;exitDx=0;exitDy=0;" edge="1" parent="gCHOKQJuizi5hcOXJvC1-15" source="gCHOKQJuizi5hcOXJvC1-33" target="gCHOKQJuizi5hcOXJvC1-31">
          <mxGeometry width="50" height="50" relative="1" as="geometry">
            <mxPoint x="90" y="130" as="sourcePoint" />
            <mxPoint x="140" y="80" as="targetPoint" />
          </mxGeometry>
        </mxCell>
        <mxCell id="gCHOKQJuizi5hcOXJvC1-40" value="Display Filtered Image" style="rounded=0;whiteSpace=wrap;html=1;" vertex="1" parent="gCHOKQJuizi5hcOXJvC1-15">
          <mxGeometry x="20" y="180" width="100" height="50" as="geometry" />
        </mxCell>
        <mxCell id="gCHOKQJuizi5hcOXJvC1-41" value="" style="endArrow=classic;html=1;rounded=0;entryX=1;entryY=0.5;entryDx=0;entryDy=0;exitX=0;exitY=0.5;exitDx=0;exitDy=0;" edge="1" parent="gCHOKQJuizi5hcOXJvC1-15" source="gCHOKQJuizi5hcOXJvC1-31" target="gCHOKQJuizi5hcOXJvC1-40">
          <mxGeometry width="50" height="50" relative="1" as="geometry">
            <mxPoint x="90" y="130" as="sourcePoint" />
            <mxPoint x="140" y="80" as="targetPoint" />
          </mxGeometry>
        </mxCell>
        <mxCell id="gCHOKQJuizi5hcOXJvC1-16" value="Filtering Process (Done Repeatedly)" style="text;html=1;align=center;verticalAlign=middle;resizable=0;points=[];autosize=1;strokeColor=none;fillColor=none;" vertex="1" parent="WIyWlLk6GJQsqaUBKTNV-1">
          <mxGeometry x="70" y="160" width="220" height="30" as="geometry" />
        </mxCell>
        <mxCell id="gCHOKQJuizi5hcOXJvC1-17" value="" style="endArrow=classic;html=1;rounded=0;exitX=0;exitY=0.5;exitDx=0;exitDy=0;entryX=1;entryY=0.138;entryDx=0;entryDy=0;entryPerimeter=0;" edge="1" parent="WIyWlLk6GJQsqaUBKTNV-1" source="gCHOKQJuizi5hcOXJvC1-11" target="gCHOKQJuizi5hcOXJvC1-15">
          <mxGeometry width="50" height="50" relative="1" as="geometry">
            <mxPoint x="130" y="290" as="sourcePoint" />
            <mxPoint x="180" y="240" as="targetPoint" />
          </mxGeometry>
        </mxCell>
        <mxCell id="gCHOKQJuizi5hcOXJvC1-18" value="Yes" style="text;html=1;align=center;verticalAlign=middle;resizable=0;points=[];autosize=1;strokeColor=none;fillColor=none;" vertex="1" parent="WIyWlLk6GJQsqaUBKTNV-1">
          <mxGeometry x="370" y="200" width="40" height="30" as="geometry" />
        </mxCell>
        <mxCell id="gCHOKQJuizi5hcOXJvC1-19" value="No" style="text;html=1;align=center;verticalAlign=middle;resizable=0;points=[];autosize=1;strokeColor=none;fillColor=none;" vertex="1" parent="WIyWlLk6GJQsqaUBKTNV-1">
          <mxGeometry x="610" y="290" width="40" height="30" as="geometry" />
        </mxCell>
        <mxCell id="gCHOKQJuizi5hcOXJvC1-43" value="Program Uses Filtered Webcam Output" style="whiteSpace=wrap;html=1;aspect=fixed;" vertex="1" parent="WIyWlLk6GJQsqaUBKTNV-1">
          <mxGeometry x="430" y="380" width="80" height="80" as="geometry" />
        </mxCell>
        <mxCell id="gCHOKQJuizi5hcOXJvC1-44" value="" style="endArrow=classic;html=1;rounded=0;entryX=0;entryY=0.5;entryDx=0;entryDy=0;exitX=1;exitY=0.793;exitDx=0;exitDy=0;exitPerimeter=0;" edge="1" parent="WIyWlLk6GJQsqaUBKTNV-1" source="gCHOKQJuizi5hcOXJvC1-15" target="gCHOKQJuizi5hcOXJvC1-43">
          <mxGeometry width="50" height="50" relative="1" as="geometry">
            <mxPoint x="130" y="320" as="sourcePoint" />
            <mxPoint x="180" y="270" as="targetPoint" />
          </mxGeometry>
        </mxCell>
        <mxCell id="gCHOKQJuizi5hcOXJvC1-45" value="" style="endArrow=classic;html=1;rounded=0;entryX=0;entryY=0.5;entryDx=0;entryDy=0;exitX=1;exitY=0.5;exitDx=0;exitDy=0;" edge="1" parent="WIyWlLk6GJQsqaUBKTNV-1" source="gCHOKQJuizi5hcOXJvC1-43" target="gCHOKQJuizi5hcOXJvC1-8">
          <mxGeometry width="50" height="50" relative="1" as="geometry">
            <mxPoint x="130" y="320" as="sourcePoint" />
            <mxPoint x="180" y="270" as="targetPoint" />
          </mxGeometry>
        </mxCell>
        <mxCell id="gCHOKQJuizi5hcOXJvC1-46" value="User Selects Desired Webcam From Dropdown Menu" style="whiteSpace=wrap;html=1;aspect=fixed;" vertex="1" parent="WIyWlLk6GJQsqaUBKTNV-1">
          <mxGeometry x="570" y="10" width="100" height="100" as="geometry" />
        </mxCell>
        <mxCell id="gCHOKQJuizi5hcOXJvC1-48" value="" style="endArrow=classic;html=1;rounded=0;entryX=0;entryY=0.5;entryDx=0;entryDy=0;exitX=1;exitY=0.5;exitDx=0;exitDy=0;" edge="1" parent="WIyWlLk6GJQsqaUBKTNV-1" source="gCHOKQJuizi5hcOXJvC1-2" target="gCHOKQJuizi5hcOXJvC1-46">
          <mxGeometry width="50" height="50" relative="1" as="geometry">
            <mxPoint x="150" y="320" as="sourcePoint" />
            <mxPoint x="200" y="270" as="targetPoint" />
          </mxGeometry>
        </mxCell>
        <mxCell id="gCHOKQJuizi5hcOXJvC1-49" value="" style="endArrow=classic;html=1;rounded=0;entryX=0.5;entryY=0;entryDx=0;entryDy=0;exitX=0.5;exitY=1;exitDx=0;exitDy=0;" edge="1" parent="WIyWlLk6GJQsqaUBKTNV-1" source="gCHOKQJuizi5hcOXJvC1-5" target="gCHOKQJuizi5hcOXJvC1-9">
          <mxGeometry width="50" height="50" relative="1" as="geometry">
            <mxPoint x="150" y="320" as="sourcePoint" />
            <mxPoint x="200" y="270" as="targetPoint" />
          </mxGeometry>
        </mxCell>
        <mxCell id="gCHOKQJuizi5hcOXJvC1-50" value="" style="endArrow=classic;html=1;rounded=0;entryX=0;entryY=0.5;entryDx=0;entryDy=0;exitX=1;exitY=0.5;exitDx=0;exitDy=0;" edge="1" parent="WIyWlLk6GJQsqaUBKTNV-1" source="gCHOKQJuizi5hcOXJvC1-46" target="gCHOKQJuizi5hcOXJvC1-5">
          <mxGeometry width="50" height="50" relative="1" as="geometry">
            <mxPoint x="150" y="320" as="sourcePoint" />
            <mxPoint x="200" y="270" as="targetPoint" />
          </mxGeometry>
        </mxCell>
      </root>
    </mxGraphModel>
  </diagram>
</mxfile>
